HIERARCHY
ROOT hip
{
	OFFSET 0.000000 0.000000 0.000000 
	CHANNELS 6 Xposition Yposition Zposition Xrotation Zrotation Yrotation
	JOINT abdomen
	{
		OFFSET 0.000000 3.402643 0.000000 
		CHANNELS 3 Xrotation Zrotation Yrotation
		JOINT chest
		{
			OFFSET 0.000000 8.438565 -0.680529 
			CHANNELS 3 Xrotation Zrotation Yrotation
			JOINT neck
			{
				OFFSET 0.000000 10.207942 -0.272212 
				CHANNELS 3 Xrotation Zrotation Yrotation
				JOINT head
				{
					OFFSET 0.000000 3.130431 0.000000 
					CHANNELS 3 Xrotation Zrotation Yrotation
					End Site
					{
						OFFSET 0.000000 3.130435 0.000000 
					}
				}
			}
			JOINT lCollar
			{
				OFFSET 3.470700 6.669187 -0.816635 
				CHANNELS 3 Yrotation Zrotation Xrotation
				JOINT lShldr
				{
					OFFSET 3.198488 0.000000 0.000000 
					CHANNELS 3 Zrotation Yrotation Xrotation
					JOINT lForeArm
					{
						OFFSET 10.139888 0.000000 0.000000 
						CHANNELS 3 Yrotation Zrotation Xrotation
						JOINT lHand
						{
							OFFSET 8.370511 0.000000 0.000000 
							CHANNELS 3 Zrotation Yrotation Xrotation
							End Site
							{
								OFFSET 4.083176 0.000000 0.000000 
							}
						}
					}
				}
			}
			JOINT rCollar
			{
				OFFSET -3.470700 6.669187 -0.816635 
				CHANNELS 3 Yrotation Zrotation Xrotation
				JOINT rShldr
				{
					OFFSET -3.198488 0.000000 0.000000 
					CHANNELS 3 Zrotation Yrotation Xrotation
					JOINT rForeArm
					{
						OFFSET -10.139888 0.000000 0.000000 
						CHANNELS 3 Yrotation Zrotation Xrotation
						JOINT rHand
						{
							OFFSET -8.370511 0.000000 0.000000 
							CHANNELS 3 Zrotation Yrotation Xrotation
							End Site
							{
								OFFSET -4.083176 0.000000 0.000000 
							}
						}
					}
				}
			}
		}
	}
	JOINT lThigh
	{
		OFFSET 5.308129 -1.633274 1.361059 
		CHANNELS 3 Xrotation Zrotation Yrotation
		JOINT lShin
		{
			OFFSET -2.041588 -20.007561 0.000000 
			CHANNELS 3 Xrotation Zrotation Yrotation
			JOINT lFoot
			{
				OFFSET 0.000000 -19.190928 -1.224953 
				CHANNELS 3 Xrotation Yrotation Zrotation
				End Site
				{
					OFFSET 0.000000 -2.449906 4.627600 
				}
			}
		}
	}
	JOINT rThigh
	{
		OFFSET -5.308129 -1.633274 1.361059 
		CHANNELS 3 Xrotation Zrotation Yrotation
		JOINT rShin
		{
			OFFSET 2.041588 -20.007561 0.000000 
			CHANNELS 3 Xrotation Zrotation Yrotation
			JOINT rFoot
			{
				OFFSET 0.000000 -19.190928 -1.224953 
				CHANNELS 3 Xrotation Yrotation Zrotation
				End Site
				{
					OFFSET 0.000000 -2.449906 4.627600 
				}
			}
		}
	}
}
MOTION
Frames: 18
Frame Time: 0.011111
31.870434 50.504181 15.307261 7.293841 1.930639 -13.735375 16.586840 -6.343232 8.930490 -23.880941 0.479649 3.043355 -12.498192 0.170104 -1.539565 16.478960 7.244039 -1.827987 -7.198545 -2.255300 -0.324897 -72.147964 -6.622047 -17.176916 -36.717705 3.493501 3.279805 8.524705 12.647240 -52.835339 5.113256 1.510366 0.237230 69.117157 16.690639 30.725479 83.545212 -4.302219 25.014027 -8.533279 -12.636986 56.957176 -33.018871 7.087001 6.661004 35.728542 -4.982155 -5.586924 -11.200295 -2.734649 -3.687151 4.520795 -7.986875 3.974044 49.913116 3.771173 7.182488 18.662519 -12.295013 5.512676 
31.876045 50.603867 16.084244 7.062897 2.183733 -13.852101 17.093946 -6.771403 8.715412 -24.115051 0.491034 3.021866 -12.439329 0.135284 -1.523539 16.291435 7.175114 -1.833946 -7.198545 -2.255300 -0.324897 -72.066162 -7.222046 -16.825081 -36.617756 3.453622 3.245841 8.524705 12.647240 -54.026745 5.113256 1.510366 0.237230 69.693542 15.943196 29.870981 83.005920 -4.718229 24.561453 -8.533279 -12.636986 56.947414 -31.856419 6.657060 7.248404 36.026104 -4.962403 -5.626984 -11.342768 -3.418373 -3.859114 2.703136 -8.096764 3.986688 53.053318 3.468024 7.498882 18.771210 -12.281678 5.524601 
31.892550 50.683083 16.885649 6.764037 2.663303 -13.728906 17.465464 -7.314434 8.134295 -24.144583 0.497013 2.923572 -12.828444 0.414265 -1.525759 16.734585 6.594892 -1.826876 -7.198545 -2.255300 -0.324897 -71.991081 -7.842672 -15.977781 -36.687721 3.479807 3.265513 8.524705 12.647240 -54.934948 5.113256 1.510366 0.237230 70.231224 15.643693 29.373686 82.149681 -5.306355 23.916761 -8.533279 -12.636986 57.513813 -30.460400 5.778634 7.692858 36.175919 -4.948827 -5.626153 -12.032160 -4.078460 -4.038740 1.025423 -8.567217 3.789591 56.012695 3.156005 7.782423 17.338341 -11.020487 4.977876 
31.910370 50.761967 17.687057 6.450895 3.279531 -13.458385 17.864635 -7.999070 7.446044 -24.135170 0.489625 2.796891 -13.383843 0.708680 -1.532432 17.267447 6.117576 -1.813357 -7.198545 -2.255300 -0.324897 -71.878700 -8.448448 -14.639834 -37.629139 3.852073 3.581444 8.524705 12.647240 -54.798229 5.113256 1.510366 0.237230 70.938293 15.577443 28.708982 81.046173 -5.957023 23.153545 -8.533279 -12.636986 57.699368 -28.961702 4.686564 8.066246 36.145222 -4.958519 -5.626498 -12.775799 -4.693068 -4.218115 -0.662745 -9.144211 3.700759 58.870972 2.825222 8.024014 14.709040 -9.870703 4.479608 
31.922253 50.864624 18.449514 6.294670 3.596901 -13.310194 18.212971 -8.361241 7.015063 -24.232901 0.490562 2.727801 -13.127603 0.548784 -1.429667 16.913687 6.414164 -1.613926 -7.198545 -2.255300 -0.324897 -71.333710 -9.853623 -15.718208 -36.957695 3.585180 3.354341 8.524705 12.647240 -57.444714 5.113256 1.510366 0.237230 71.517937 15.076338 28.070492 80.100311 -6.443563 22.543173 -8.533279 -12.636986 57.953274 -27.603910 4.042185 8.374242 35.947994 -4.958418 -5.609206 -13.288289 -5.283800 -4.390386 -2.829712 -9.213564 3.672517 61.685562 2.520911 8.271541 12.937964 -7.288635 3.761386 
31.936447 50.947800 19.185896 6.269622 3.575239 -13.175564 18.469694 -8.253562 6.681056 -24.291674 0.546282 2.626465 -12.547319 0.139327 -1.221046 16.242559 6.913979 -1.257187 -7.198545 -2.255300 -0.324897 -71.239731 -11.023741 -15.888535 -36.667850 3.473283 3.257933 8.524705 12.647240 -59.778698 5.113256 1.510366 0.237230 71.738014 14.391651 27.761059 79.164566 -6.869755 21.971609 -8.533279 -12.636986 58.744286 -26.364378 3.651548 8.339712 35.580887 -4.987762 -5.546583 -13.960534 -5.531859 -4.509759 -5.192250 -8.872250 3.428179 64.273438 2.236545 8.470816 11.537083 -4.189842 3.113293 
31.951300 50.994995 19.942415 6.232545 3.641879 -13.150114 18.633472 -8.254008 6.420072 -24.321106 0.592440 2.555134 -12.220570 -0.015600 -1.047322 15.947762 7.023016 -0.947032 -7.198545 -2.255300 -0.324897 -71.071892 -12.085468 -14.276439 -36.597542 3.439239 3.232468 8.524705 12.647240 -60.618538 5.113256 1.510366 0.237230 72.082642 13.994554 27.168053 77.875229 -7.378229 21.219719 -8.533279 -12.636986 59.515774 -24.983839 3.142847 8.298836 35.024567 -5.026738 -5.479881 -14.699964 -5.659888 -4.584542 -7.270524 -8.715593 3.534475 66.351288 1.973970 8.632816 9.379497 -3.369212 3.020679 
31.965492 51.123062 20.746130 6.049068 3.929947 -13.313401 18.798883 -8.557211 6.301736 -24.204023 0.616466 2.554717 -12.305867 -0.000032 -0.967872 16.153505 6.814803 -0.789232 -7.198545 -2.255300 -0.324897 -70.606789 -13.521465 -12.685677 -36.128532 3.259475 3.084278 8.524705 12.647240 -61.653698 5.113256 1.510366 0.237230 72.640976 13.874534 26.040791 76.307678 -7.900530 20.343309 -8.533279 -12.636986 59.642727 -23.365799 2.479951 8.372651 34.408592 -5.065733 -5.407710 -15.062381 -5.838879 -4.651071 -8.983858 -9.130459 3.840613 67.833908 1.788375 8.723012 6.799706 -3.550703 3.088505 
31.982988 51.344872 21.580544 5.757637 4.294483 -13.260165 18.996080 -8.916172 6.042901 -23.940639 0.730005 2.521817 -12.734943 -0.050125 -0.932238 16.745443 6.467801 -0.770002 -7.198545 -2.255300 -0.324897 -70.141167 -15.016772 -10.157652 -35.639664 3.054224 2.920638 8.524705 12.647240 -61.800179 5.113256 1.510366 0.237230 72.825745 13.696956 25.122608 74.733955 -8.328036 19.496353 -8.533279 -12.636986 59.613426 -21.696880 1.659676 8.172951 33.831657 -5.104578 -5.338663 -15.466588 -5.989873 -4.728540 -10.532977 -9.674476 3.799423 68.935310 1.669876 8.805249 4.689324 -2.383245 3.022459 
31.994871 51.424084 22.371719 5.770505 4.530223 -12.774497 18.945459 -8.989150 5.585517 -23.804277 0.767073 2.404138 -12.842920 0.011087 -0.962537 17.109625 6.107356 -0.856806 -7.198545 -2.255300 -0.324897 -69.771339 -16.170170 -7.623691 -35.699429 3.082483 2.948233 8.524705 12.647240 -61.897839 5.113256 1.510366 0.237230 72.962112 13.426088 24.559923 72.990295 -8.708910 18.591320 -8.533279 -12.636986 59.769680 -20.510962 0.887640 7.730580 33.414375 -5.133724 -5.261146 -16.213840 -6.342795 -4.879328 -12.579897 -9.565154 3.757977 69.996422 1.504665 8.889139 2.672032 -0.847172 2.993482 
31.994211 51.429039 23.095890 6.090855 4.583745 -12.141781 18.762432 -8.795524 5.114273 -23.902163 0.724799 2.258485 -12.707561 0.023033 -1.009768 17.310875 5.941263 -0.942957 -7.198545 -2.255300 -0.324897 -69.589973 -17.348885 -7.046129 -36.088276 3.238842 3.073427 8.524705 12.647240 -63.870499 5.113256 1.510366 0.237230 73.369232 13.084654 23.806255 71.108772 -9.023727 17.642599 -8.533279 -12.636986 59.838036 -19.818527 0.419141 7.244081 33.105331 -5.152850 -5.238630 -16.966797 -6.578455 -5.014415 -14.953594 -9.107608 3.739041 70.931999 1.397497 8.942389 0.609648 0.766032 3.058239 
31.975063 51.452469 23.792006 6.258300 4.488277 -11.494294 18.904531 -8.516630 4.653629 -24.136673 0.804084 2.104999 -12.796366 -0.127318 -1.002786 17.867920 5.920693 -0.957330 -7.198545 -2.255300 -0.324897 -69.454948 -18.395878 -4.888054 -36.677612 3.472630 3.258811 8.524705 12.647240 -64.241592 5.113256 1.510366 0.237230 73.648697 12.661514 22.861057 69.111580 -9.257011 16.659678 -8.533279 -12.636986 59.779449 -19.099882 0.185505 6.871718 33.024830 -5.163058 -5.234599 -17.645243 -7.014182 -5.205445 -16.664581 -8.737858 3.550552 71.555367 1.309635 8.975104 -1.531833 2.092912 3.218778 
31.953609 51.545883 24.531687 6.287912 4.308354 -10.981813 19.124683 -8.256372 4.372580 -24.312559 0.912179 1.998875 -12.788589 -0.263970 -1.032178 18.197767 5.893324 -1.051783 -7.198545 -2.255300 -0.324897 -69.234215 -19.421682 -2.025167 -37.178322 3.677473 3.427899 8.524705 12.647240 -63.694717 5.113256 1.510366 0.237230 73.756218 12.112823 21.612465 66.920387 -9.410722 15.605202 -8.533279 -12.636986 58.705223 -18.112848 0.067985 6.612284 32.906906 -5.157572 -5.222670 -18.180918 -7.739637 -5.491182 -18.648550 -8.250573 2.997033 71.730774 1.290121 8.983810 -3.134312 3.018985 3.382152 
31.949316 51.613544 25.329462 6.306228 4.305155 -10.578178 19.052689 -8.151547 4.247767 -24.195509 0.974183 1.957958 -12.457454 -0.500444 -1.002437 18.007902 6.201997 -0.991516 -7.198545 -2.255300 -0.324897 -68.984314 -20.690334 -0.048358 -37.608822 3.838052 3.567663 8.524705 12.647240 -63.694717 5.113256 1.510366 0.237230 74.062119 11.348781 20.225626 65.538483 -9.455776 14.952970 -8.533279 -12.636986 57.201324 -17.064079 -0.254368 6.305105 32.737049 -5.172524 -5.202286 -18.651745 -8.211960 -5.709395 -20.188622 -8.025199 2.754194 71.565704 1.328747 8.969836 -5.107035 3.717945 3.578331 
31.948990 51.617508 26.126249 6.335711 4.374680 -10.106983 18.908175 -8.117572 4.029430 -23.961349 1.060692 1.898414 -12.172646 -0.542092 -0.945410 17.843832 6.199038 -0.889316 -7.198545 -2.255300 -0.324897 -68.720398 -21.967205 2.325224 -38.181122 4.061098 3.764337 8.524705 12.647240 -63.059948 5.113256 1.510366 0.237230 74.493721 10.686027 18.843979 63.845821 -9.461868 14.158403 -8.533279 -12.636986 56.449368 -15.908711 -0.645414 6.173566 32.407864 -5.196628 -5.159936 -18.957949 -8.525461 -5.857279 -21.612078 -7.887866 2.468771 71.184944 1.358550 8.962876 -7.333599 4.052842 3.767663 
31.921261 51.601997 26.858671 6.496798 4.251244 -9.718368 18.831656 -7.963874 3.817240 -23.815058 1.218326 1.824773 -12.348489 -0.242827 -1.023345 18.165047 5.643914 -1.031676 -7.198545 -2.255300 -0.324897 -68.407524 -23.227915 5.439423 -38.835167 4.309758 3.985733 8.524705 12.647240 -61.575569 5.113256 1.510366 0.237230 74.686195 10.067551 17.786625 62.150959 -9.414778 13.387970 -8.533279 -12.636986 55.824364 -14.889875 -0.780981 6.145075 31.946840 -5.239103 -5.120707 -19.068975 -8.637431 -5.900415 -23.225147 -7.507674 2.114564 70.708084 1.416904 8.920165 -9.671305 4.301884 3.949741 
31.880995 51.672623 27.606937 6.668766 4.242551 -9.307274 18.772024 -7.972286 3.508265 -23.707848 1.405885 1.730135 -12.651389 -0.305690 -1.007947 18.589573 5.818709 -0.992757 -7.198545 -2.255300 -0.324897 -68.036163 -24.352791 8.952323 -39.783470 4.658833 4.308365 8.524705 12.647240 -59.407604 5.113256 1.510366 0.237230 74.797058 9.480000 17.796890 64.155136 -9.466003 14.305746 -8.533279 -12.636986 52.386864 -13.862722 -1.035244 5.993815 31.412357 -5.250377 -5.017667 -19.158924 -8.958296 -6.042270 -24.688175 -7.312387 1.703256 69.958466 1.543162 8.873695 -12.205666 4.888108 4.229128 
31.861853 51.726761 28.388536 6.664387 4.575582 -8.648794 18.880306 -8.265156 2.860965 -23.698385 1.682561 1.590377 -12.505255 -0.738323 -0.897670 18.468889 6.479350 -0.763161 -7.198545 -2.255300 -0.324897 -67.776489 -25.364458 11.664856 -41.069221 5.113076 4.758813 8.524705 12.647240 -57.298225 5.113256 1.510366 0.237230 74.927490 9.169374 16.431833 59.518753 -9.239482 12.197412 -8.533279 -12.636986 55.853661 -12.583628 -1.738118 5.691624 30.969648 -5.297367 -4.980877 -19.668823 -9.253495 -6.218053 -26.140686 -7.704634 1.357056 69.060905 1.621700 8.830944 -14.342157 5.885060 4.613389 
